<svg width="25" height="13" viewBox="0 0 25 13" fill="none" xmlns="http://www.w3.org/2000/svg">
<path d="M3.336 10.156C5.004 10.156 6.072 8.632 6.072 5.572C6.072 2.524 5.004 1.036 3.336 1.036C1.656 1.036 0.588 2.512 0.588 5.572C0.588 8.632 1.656 10.156 3.336 10.156ZM3.336 9.28C2.328 9.28 1.656 8.164 1.656 5.572C1.656 3.004 2.328 1.912 3.336 1.912C4.332 1.912 5.004 3.004 5.004 5.572C5.004 8.164 4.332 9.28 3.336 9.28ZM6.78825 12.148H7.59225L11.1803 0.472H10.3883L6.78825 12.148ZM12.4115 10H17.2355V9.088H15.4715V1.192H14.6315C14.1515 1.48 13.5875 1.684 12.8075 1.828V2.524H14.3675V9.088H12.4115V10ZM21.3477 10.156C23.0157 10.156 24.0837 8.632 24.0837 5.572C24.0837 2.524 23.0157 1.036 21.3477 1.036C19.6677 1.036 18.5997 2.512 18.5997 5.572C18.5997 8.632 19.6677 10.156 21.3477 10.156ZM21.3477 9.28C20.3397 9.28 19.6677 8.164 19.6677 5.572C19.6677 3.004 20.3397 1.912 21.3477 1.912C22.3437 1.912 23.0157 3.004 23.0157 5.572C23.0157 8.164 22.3437 9.28 21.3477 9.28Z" fill="#909399"/>
</svg>
